<svg xmlns="http://www.w3.org/2000/svg" viewBox="0 0 1024 640" fill="currentColor">
  <g>
    <!-- M -->
    <path d="M25 60 L25 445 L117 445 L117 174 L195 340 L233 340 L311 174 L311 445 L403 445 L403 60 L277 60 L214 240 L151 60 Z"/>
    
    <!-- O (Football) -->
    <g transform="translate(450, 60)">
      <ellipse cx="100" cy="192" rx="85" ry="130" fill="currentColor" stroke="currentColor" stroke-width="8"/>
      <!-- Football laces -->
      <g stroke="currentColor" stroke-width="4" fill="none" stroke-linecap="round">
        <line x1="100" y1="120" x2="100" y2="140"/>
        <line x1="100" y1="160" x2="100" y2="180"/>
        <line x1="100" y1="200" x2="100" y2="220"/>
        <line x1="100" y1="240" x2="100" y2="260"/>
        <!-- Cross laces -->
        <line x1="85" y1="130" x2="115" y2="130"/>
        <line x1="85" y1="170" x2="115" y2="170"/>
        <line x1="85" y1="210" x2="115" y2="210"/>
        <line x1="85" y1="250" x2="115" y2="250"/>
      </g>
    </g>
    
    <!-- K -->
    <path d="M725 60 L725 445 L817 445 L817 275 L890 445 L997 445 L897 248 L990 60 L883 60 L817 185 L817 60 Z"/>
  </g>
  
  <!-- Sports Text -->
  <g transform="translate(50, 480)">
    <!-- S -->
    <path d="M0 80 Q0 40 40 40 L120 40 Q160 40 160 80 L160 100 Q160 120 140 120 L40 120 Q20 120 20 140 L20 160 Q20 180 40 180 L120 180 Q160 180 160 140 L200 140 Q200 200 160 200 L40 200 Q0 200 0 160 L0 140 Q0 120 20 120 L120 120 Q140 120 140 100 L140 80 Q140 60 120 60 L40 60 Q0 60 0 100 Z"/>
    
    <!-- p -->
    <path d="M240 40 L240 200 L280 200 L280 140 L320 140 Q360 140 360 100 L360 80 Q360 40 320 40 Z M280 80 L280 100 L320 100 Q340 100 340 80 Q340 60 320 60 L280 60 Z"/>
    
    <!-- o -->
    <ellipse cx="420" cy="120" rx="40" ry="80" fill="currentColor"/>
    <ellipse cx="420" cy="120" rx="20" ry="60" fill="white"/>
    
    <!-- r -->
    <path d="M500 40 L500 200 L540 200 L540 140 L580 140 Q620 140 620 100 L620 80 Q620 40 580 40 Z M540 80 L540 100 L580 100 Q600 100 600 80 Q600 60 580 60 L540 60 Z M580 140 L620 200 L660 200 L620 140"/>
    
    <!-- t -->
    <path d="M700 60 L660 60 L660 40 L780 40 L780 60 L740 60 L740 200 L700 200 Z"/>
    
    <!-- s -->
    <path d="M820 80 Q820 40 860 40 L920 40 Q960 40 960 80 L960 100 Q960 120 940 120 L860 120 Q840 120 840 140 L840 160 Q840 180 860 180 L920 180 Q960 180 960 140 L1000 140 Q1000 200 960 200 L860 200 Q820 200 820 160 L820 140 Q820 120 840 120 L920 120 Q940 120 940 100 L940 80 Q940 60 920 60 L860 60 Q820 60 820 100 Z"/>
  </g>
</svg>